<?xml version="1.0" standalone="no"?>
<!DOCTYPE svg PUBLIC "-//W3C//DTD SVG 20010904//EN"
 "http://www.w3.org/TR/2001/REC-SVG-20010904/DTD/svg10.dtd">
<svg version="1.0" xmlns="http://www.w3.org/2000/svg"
 viewBox="0 0 841.9 595.3">

<g transform="translate(0.000000,380.000000) scale(0.100000,-0.100000)"
fill="#000000" stroke="none">
<path d="M2590 3460 c-560 -119 -932 -655 -847 -1220 72 -476 421 -833 895
-915 274 -48 573 19 804 181 l80 56 39 -38 c37 -37 39 -41 39 -104 l0 -65 490
-490 490 -490 130 130 130 130 -487 487 -488 488 -70 0 c-69 0 -72 1 -109 39
l-38 39 55 78 c137 197 197 387 197 627 0 315 -115 589 -337 797 -150 142
-324 231 -535 274 -107 22 -327 20 -438 -4z m441 -310 c266 -79 464 -279 541
-547 29 -102 31 -303 4 -403 -37 -136 -104 -253 -202 -352 -238 -241 -603
-300 -909 -148 -152 75 -272 195 -346 345 -62 126 -74 187 -73 360 0 135 3
158 27 230 96 287 329 488 622 536 84 14 255 3 336 -21z"/>
</g>
</svg>
